# OBJ generated by ONSHAPE BY PTC INC, 1.197 Units = meters
mtllib nut_poly.mtl
g nut_poly
v 0.146415 0.0525152 0.03 
v 0.146415 0.0525152 0 
v 0.139078 0.0762091 0 
v 0.139078 0.0762091 0.03 
v 0.114891 0.0817026 0 
v 0.114891 0.0817026 0.03 
v 0.0980393 0.0635022 0 
v 0.0980393 0.0635022 0.03 
v 0.105376 0.0398083 0 
v 0.105376 0.0398083 0.03 
v 0.129563 0.0343148 0 
v 0.129563 0.0343148 0.03 
v 0.121691 0.0719292 0.03 
v 0.114803 0.0697963 0.03 
v 0.109904 0.0645049 0.03 
v 0.134015 0.0654329 0.03 
v 0.128723 0.0703321 0.03 
v 0.110439 0.0505845 0.03 
v 0.108306 0.0574729 0.03 
v 0.122763 0.0440882 0.03 
v 0.13455 0.0515124 0.03 
v 0.115731 0.0456853 0.03 
v 0.129651 0.0462211 0.03 
v 0.136147 0.0585445 0.03 
v 0.128723 0.0703321 0 
v 0.121691 0.0719292 0 
v 0.114803 0.0697963 0 
v 0.109904 0.0645049 0 
v 0.134015 0.0654329 0 
v 0.136147 0.0585445 0 
v 0.13455 0.0515124 0 
v 0.129651 0.0462211 0 
v 0.115731 0.0456853 0 
v 0.122763 0.0440882 0 
v 0.110439 0.0505845 0 
v 0.108306 0.0574729 0 
vn 0.955257 0.295777 0 
vn 0.221478 0.975165 0 
vn -0.733779 0.679388 0 
vn -0.955257 -0.295777 0 
vn -0.221478 -0.975165 0 
vn 0.733779 -0.679388 0 
vn 0 0 1 
vn 0 0 -1 
vn -0.221478 -0.975165 0 
vn -0.679388 -0.733779 0 
vn -0.955257 -0.295777 0 
vn -0.975165 0.221478 0 
vn -0.733779 0.679388 0 
vn -0.295777 0.955257 0 
vn 0.221478 0.975165 0 
vn 0.679388 0.733779 0 
vn 0.955257 0.295777 0 
vn 0.975165 -0.221478 0 
vn 0.733779 -0.679388 0 
vn 0.295777 -0.955257 0 
usemtl 0.917647_0.917647_0.917647_0.000000_0.000000
o mesh0
f 1//1 2//1 3//1 
f 3//1 4//1 1//1 
o mesh1
f 4//2 3//2 5//2 
f 5//2 6//2 4//2 
o mesh2
f 6//3 5//3 7//3 
f 7//3 8//3 6//3 
o mesh3
f 8//4 7//4 9//4 
f 9//4 10//4 8//4 
o mesh4
f 10//5 9//5 11//5 
f 11//5 12//5 10//5 
o mesh5
f 12//6 11//6 2//6 
f 2//6 1//6 12//6 
o mesh6
f 4//7 6//7 13//7 
f 6//7 14//7 13//7 
f 6//7 8//7 15//7 
f 15//7 14//7 6//7 
f 1//7 4//7 16//7 
f 13//7 17//7 4//7 
f 8//7 10//7 18//7 
f 17//7 16//7 4//7 
f 18//7 19//7 8//7 
f 10//7 12//7 20//7 
f 12//7 1//7 21//7 
f 19//7 15//7 8//7 
f 20//7 22//7 10//7 
f 21//7 23//7 12//7 
f 22//7 18//7 10//7 
f 1//7 24//7 21//7 
f 23//7 20//7 12//7 
f 16//7 24//7 1//7 
o mesh7
f 3//8 25//8 26//8 
f 5//8 27//8 28//8 
f 26//8 5//8 3//8 
f 26//8 27//8 5//8 
f 3//8 29//8 25//8 
f 2//8 30//8 29//8 
f 28//8 7//8 5//8 
f 2//8 31//8 30//8 
f 11//8 32//8 31//8 
f 9//8 33//8 34//8 
f 29//8 3//8 2//8 
f 11//8 34//8 32//8 
f 9//8 35//8 33//8 
f 7//8 36//8 35//8 
f 31//8 2//8 11//8 
f 35//8 9//8 7//8 
f 34//8 11//8 9//8 
f 28//8 36//8 7//8 
o mesh8
f 13//9 26//9 25//9 
f 25//9 17//9 13//9 
o mesh9
f 17//10 25//10 29//10 
f 29//10 16//10 17//10 
o mesh10
f 16//11 29//11 30//11 
f 30//11 24//11 16//11 
o mesh11
f 24//12 30//12 31//12 
f 31//12 21//12 24//12 
o mesh12
f 21//13 31//13 32//13 
f 32//13 23//13 21//13 
o mesh13
f 23//14 32//14 34//14 
f 34//14 20//14 23//14 
o mesh14
f 20//15 34//15 33//15 
f 33//15 22//15 20//15 
o mesh15
f 22//16 33//16 35//16 
f 35//16 18//16 22//16 
o mesh16
f 18//17 35//17 36//17 
f 36//17 19//17 18//17 
o mesh17
f 19//18 36//18 28//18 
f 28//18 15//18 19//18 
o mesh18
f 15//19 28//19 27//19 
f 27//19 14//19 15//19 
o mesh19
f 14//20 27//20 26//20 
f 26//20 13//20 14//20 
