# OBJ generated by ONSHAPE BY PTC INC, 1.197 Units = meters
mtllib insertion_base.mtl
g insertion_base
v 0.0155631 -0.0346533 0.045 
v 0.0153894 -0.0335939 0.045 
v 0.0151022 -0.0325595 0.045 
v 0.0147048 -0.0315622 0.045 
v 0.014202 -0.0306137 0.045 
v 0.0135995 -0.0297252 0.045 
v 0.0129045 -0.028907 0.045 
v 0.0121252 -0.0281687 0.045 
v 0.0112705 -0.0275191 0.045 
v 0.0103507 -0.0269656 0.045 
v 0.00937635 -0.0265148 0.045 
v 0.00835901 -0.026172 0.045 
v 0.00731058 -0.0259413 0.045 
v 0.00624334 -0.0258252 0.045 
v 0.00516981 -0.0258252 0.045 
v 0.00410258 -0.0259413 0.045 
v 0.00305414 -0.026172 0.045 
v 0.00203681 -0.0265148 0.045 
v 0.0010625 -0.0269656 0.045 
v 0.000142636 -0.0275191 0.045 
v -0.000711994 -0.0281687 0.045 
v -0.00149137 -0.028907 0.045 
v -0.00218636 -0.0297252 0.045 
v -0.00278881 -0.0306137 0.045 
v -0.00329166 -0.0315622 0.045 
v -0.00368902 -0.0325595 0.045 
v -0.00397622 -0.0335939 0.045 
v -0.0041499 -0.0346533 0.045 
v -0.00420802 -0.0357253 0.045 
v -0.0041499 -0.0367972 0.045 
v -0.00397622 -0.0378566 0.045 
v -0.00368902 -0.038891 0.045 
v -0.00329166 -0.0398883 0.045 
v -0.00278881 -0.0408368 0.045 
v -0.00218636 -0.0417253 0.045 
v -0.00149137 -0.0425435 0.045 
v -0.000711994 -0.0432818 0.045 
v 0.000142636 -0.0439315 0.045 
v 0.0010625 -0.0444849 0.045 
v 0.00203681 -0.0449357 0.045 
v 0.00305414 -0.0452785 0.045 
v 0.00410258 -0.0455092 0.045 
v 0.00516981 -0.0456253 0.045 
v 0.00624334 -0.0456253 0.045 
v 0.00731058 -0.0455092 0.045 
v 0.00835901 -0.0452785 0.045 
v 0.00937635 -0.0449357 0.045 
v 0.0103507 -0.0444849 0.045 
v 0.0112705 -0.0439315 0.045 
v 0.0121252 -0.0432818 0.045 
v 0.0129045 -0.0425435 0.045 
v 0.0135995 -0.0417253 0.045 
v 0.014202 -0.0408368 0.045 
v 0.0147048 -0.0398883 0.045 
v 0.0151022 -0.038891 0.045 
v 0.0153894 -0.0378566 0.045 
v 0.0155631 -0.0367972 0.045 
v 0.0156212 -0.0357253 0.045 
v 0.00570658 -0.0357253 0.045 
v -0.00420802 -0.0357253 0.005 
v -0.0041499 -0.0346533 0.005 
v -0.00397622 -0.0335939 0.005 
v -0.00368902 -0.0325595 0.005 
v -0.00329166 -0.0315622 0.005 
v -0.00278881 -0.0306137 0.005 
v -0.00218636 -0.0297252 0.005 
v -0.00149137 -0.028907 0.005 
v -0.000711994 -0.0281687 0.005 
v 0.000142636 -0.0275191 0.005 
v 0.0010625 -0.0269656 0.005 
v 0.00203681 -0.0265148 0.005 
v 0.00305414 -0.026172 0.005 
v 0.00410258 -0.0259413 0.005 
v 0.00516981 -0.0258252 0.005 
v 0.00624334 -0.0258252 0.005 
v 0.00731058 -0.0259413 0.005 
v 0.00835901 -0.026172 0.005 
v 0.00937635 -0.0265148 0.005 
v 0.0103507 -0.0269656 0.005 
v 0.0112705 -0.0275191 0.005 
v 0.0121252 -0.0281687 0.005 
v 0.0129045 -0.028907 0.005 
v 0.0135995 -0.0297252 0.005 
v 0.014202 -0.0306137 0.005 
v 0.0147048 -0.0315622 0.005 
v 0.0151022 -0.0325595 0.005 
v 0.0153894 -0.0335939 0.005 
v 0.0155631 -0.0346533 0.005 
v 0.0156212 -0.0357253 0.005 
v 0.0155631 -0.0367972 0.005 
v 0.0153894 -0.0378566 0.005 
v 0.0151022 -0.038891 0.005 
v 0.0147048 -0.0398883 0.005 
v 0.014202 -0.0408368 0.005 
v 0.0135995 -0.0417253 0.005 
v 0.0129045 -0.0425435 0.005 
v 0.0121252 -0.0432818 0.005 
v 0.0112705 -0.0439315 0.005 
v 0.0103507 -0.0444849 0.005 
v 0.00937635 -0.0449357 0.005 
v 0.00835901 -0.0452785 0.005 
v 0.00731058 -0.0455092 0.005 
v 0.00624334 -0.0456253 0.005 
v 0.00516981 -0.0456253 0.005 
v 0.00410258 -0.0455092 0.005 
v 0.00305414 -0.0452785 0.005 
v 0.00203681 -0.0449357 0.005 
v 0.0010625 -0.0444849 0.005 
v 0.000142636 -0.0439315 0.005 
v -0.000711994 -0.0432818 0.005 
v -0.00149137 -0.0425435 0.005 
v -0.00218636 -0.0417253 0.005 
v -0.00278881 -0.0408368 0.005 
v -0.00329166 -0.0398883 0.005 
v -0.00368902 -0.038891 0.005 
v -0.00397622 -0.0378566 0.005 
v -0.0041499 -0.0367972 0.005 
v 0.155899 0.0142188 0.005 
v 0.106368 -0.0258899 0.005 
v 0.107429 -0.0260052 0.005 
v 0.0965008 -0.0325802 0.005 
v -0.0443576 0.0142188 0.005 
v -0.0443576 -0.0856693 0.005 
v 0.10847 -0.0262345 0.005 
v 0.105302 -0.0258899 0.005 
v 0.1032 -0.0262345 0.005 
v 0.104242 -0.0260052 0.005 
v 0.102189 -0.026575 0.005 
v 0.155899 -0.0856693 0.005 
v 0.104242 -0.0454453 0.005 
v 0.111363 -0.0438778 0.005 
v 0.110449 -0.0444277 0.005 
v 0.100307 -0.0275727 0.005 
v 0.101221 -0.0270228 0.005 
v 0.0986841 -0.0289516 0.005 
v 0.0994584 -0.0282181 0.005 
v 0.0965008 -0.0388703 0.005 
v 0.105302 -0.0455606 0.005 
v 0.107429 -0.0454453 0.005 
v 0.106368 -0.0455606 0.005 
v 0.109481 -0.0448755 0.005 
v 0.0979937 -0.0297644 0.005 
v 0.096043 -0.0346603 0.005 
v 0.096043 -0.0367902 0.005 
v 0.101221 -0.0444277 0.005 
v 0.100307 -0.0438778 0.005 
v 0.1032 -0.045216 0.005 
v 0.102189 -0.0448755 0.005 
v 0.10847 -0.045216 0.005 
v 0.111363 -0.0275727 0.005 
v 0.112212 -0.0282181 0.005 
v 0.109481 -0.026575 0.005 
v 0.110449 -0.0270228 0.005 
v 0.0959852 -0.0357253 0.005 
v 0.0979937 -0.0416861 0.005 
v 0.0973952 -0.0408034 0.005 
v 0.115455 -0.0378427 0.005 
v 0.115169 -0.0388703 0.005 
v 0.114275 -0.0306472 0.005 
v 0.114774 -0.0315894 0.005 
v 0.112986 -0.0289516 0.005 
v 0.0962155 -0.0336078 0.005 
v 0.0968956 -0.0398611 0.005 
v 0.0994584 -0.0432324 0.005 
v 0.0986841 -0.042499 0.005 
v 0.112986 -0.042499 0.005 
v 0.112212 -0.0432324 0.005 
v 0.114275 -0.0408034 0.005 
v 0.113676 -0.0416861 0.005 
v 0.115627 -0.0367902 0.005 
v 0.115685 -0.0357253 0.005 
v 0.113676 -0.0297644 0.005 
v 0.0968956 -0.0315894 0.005 
v 0.0962155 -0.0378427 0.005 
v 0.114774 -0.0398611 0.005 
v 0.115169 -0.0325802 0.005 
v 0.115455 -0.0336078 0.005 
v 0.0973952 -0.0306472 0.005 
v 0.115627 -0.0346603 0.005 
v 0.155899 0.0142188 0 
v -0.0443576 0.0142188 0 
v -0.0443576 -0.0856693 0 
v 0.155899 -0.0856693 0 
v 0.0959852 -0.0357253 0.045 
v 0.096043 -0.0346603 0.045 
v 0.0962155 -0.0336078 0.045 
v 0.0965008 -0.0325802 0.045 
v 0.0968956 -0.0315894 0.045 
v 0.0973952 -0.0306472 0.045 
v 0.0979937 -0.0297644 0.045 
v 0.0986841 -0.0289516 0.045 
v 0.0994584 -0.0282181 0.045 
v 0.100307 -0.0275727 0.045 
v 0.101221 -0.0270228 0.045 
v 0.102189 -0.026575 0.045 
v 0.1032 -0.0262345 0.045 
v 0.104242 -0.0260052 0.045 
v 0.105302 -0.0258899 0.045 
v 0.106368 -0.0258899 0.045 
v 0.107429 -0.0260052 0.045 
v 0.10847 -0.0262345 0.045 
v 0.109481 -0.026575 0.045 
v 0.110449 -0.0270228 0.045 
v 0.111363 -0.0275727 0.045 
v 0.112212 -0.0282181 0.045 
v 0.112986 -0.0289516 0.045 
v 0.113676 -0.0297644 0.045 
v 0.114275 -0.0306472 0.045 
v 0.114774 -0.0315894 0.045 
v 0.115169 -0.0325802 0.045 
v 0.115455 -0.0336078 0.045 
v 0.115627 -0.0346603 0.045 
v 0.115685 -0.0357253 0.045 
v 0.115627 -0.0367902 0.045 
v 0.115455 -0.0378427 0.045 
v 0.115169 -0.0388703 0.045 
v 0.114774 -0.0398611 0.045 
v 0.114275 -0.0408034 0.045 
v 0.113676 -0.0416861 0.045 
v 0.112986 -0.042499 0.045 
v 0.112212 -0.0432324 0.045 
v 0.111363 -0.0438778 0.045 
v 0.110449 -0.0444277 0.045 
v 0.109481 -0.0448755 0.045 
v 0.10847 -0.045216 0.045 
v 0.107429 -0.0454453 0.045 
v 0.106368 -0.0455606 0.045 
v 0.105302 -0.0455606 0.045 
v 0.104242 -0.0454453 0.045 
v 0.1032 -0.045216 0.045 
v 0.102189 -0.0448755 0.045 
v 0.101221 -0.0444277 0.045 
v 0.100307 -0.0438778 0.045 
v 0.0994584 -0.0432324 0.045 
v 0.0986841 -0.042499 0.045 
v 0.0979937 -0.0416861 0.045 
v 0.0973952 -0.0408034 0.045 
v 0.0968956 -0.0398611 0.045 
v 0.0965008 -0.0388703 0.045 
v 0.0962155 -0.0378427 0.045 
v 0.096043 -0.0367902 0.045 
v 0.105835 -0.0357253 0.045 
vn 0 0 1 
vn -1 0 0 
vn -0.994138 0.108119 0 
vn -0.976621 0.21497 0 
vn -0.947653 0.319302 0 
vn -0.907575 0.419889 0 
vn -0.856857 0.515554 0 
vn -0.796093 0.605174 0 
vn -0.725995 0.687699 0 
vn -0.647386 0.762162 0 
vn -0.561187 0.827689 0 
vn -0.468408 0.883512 0 
vn -0.370138 0.928977 0 
vn -0.267528 0.96355 0 
vn -0.161782 0.986827 0 
vn -0.0541389 0.998533 0 
vn 0.0541389 0.998533 0 
vn 0.161782 0.986827 0 
vn 0.267528 0.96355 0 
vn 0.370138 0.928977 0 
vn 0.468408 0.883512 0 
vn 0.561187 0.827689 0 
vn 0.647386 0.762162 0 
vn 0.725995 0.687699 0 
vn 0.796093 0.605174 0 
vn 0.856857 0.515554 0 
vn 0.907575 0.419889 0 
vn 0.947653 0.319302 0 
vn 0.976621 0.21497 0 
vn 0.994138 0.108119 0 
vn 1 1.22465e-16 0 
vn 0.994138 -0.108119 0 
vn 0.976621 -0.21497 0 
vn 0.947653 -0.319302 0 
vn 0.907575 -0.419889 0 
vn 0.856857 -0.515554 0 
vn 0.796093 -0.605174 0 
vn 0.725995 -0.687699 0 
vn 0.647386 -0.762162 0 
vn 0.561187 -0.827689 0 
vn 0.468408 -0.883512 0 
vn 0.370138 -0.928977 0 
vn 0.267528 -0.96355 0 
vn 0.161782 -0.986827 0 
vn 0.0541389 -0.998533 0 
vn -0.0541389 -0.998533 0 
vn -0.161782 -0.986827 0 
vn -0.267528 -0.96355 0 
vn -0.370138 -0.928977 0 
vn -0.468408 -0.883512 0 
vn -0.561187 -0.827689 0 
vn -0.647386 -0.762162 0 
vn -0.725995 -0.687699 0 
vn -0.796093 -0.605174 0 
vn -0.856857 -0.515554 0 
vn -0.907575 -0.419889 0 
vn -0.947653 -0.319302 0 
vn -0.976621 -0.21497 0 
vn -0.994138 -0.108119 0 
vn 0 0 1 
vn 0 1 0 
vn -1 0 0 
vn 0 -1 0 
vn 1 0 0 
vn 0 0 -1 
vn -1 0 0 
vn -0.994138 0.108119 0 
vn -0.976621 0.21497 0 
vn -0.947653 0.319302 0 
vn -0.907575 0.419889 0 
vn -0.856857 0.515554 0 
vn -0.796093 0.605174 0 
vn -0.725995 0.687699 0 
vn -0.647386 0.762162 0 
vn -0.561187 0.827689 0 
vn -0.468408 0.883512 0 
vn -0.370138 0.928977 0 
vn -0.267528 0.96355 0 
vn -0.161782 0.986827 0 
vn -0.0541389 0.998533 0 
vn 0.0541389 0.998533 0 
vn 0.161782 0.986827 0 
vn 0.267528 0.96355 0 
vn 0.370138 0.928977 0 
vn 0.468408 0.883512 0 
vn 0.561187 0.827689 0 
vn 0.647386 0.762162 0 
vn 0.725995 0.687699 0 
vn 0.796093 0.605174 0 
vn 0.856857 0.515554 0 
vn 0.907575 0.419889 0 
vn 0.947653 0.319302 0 
vn 0.976621 0.21497 0 
vn 0.994138 0.108119 0 
vn 1 1.22465e-16 0 
vn 0.994138 -0.108119 0 
vn 0.976621 -0.21497 0 
vn 0.947653 -0.319302 0 
vn 0.907575 -0.419889 0 
vn 0.856857 -0.515554 0 
vn 0.796093 -0.605174 0 
vn 0.725995 -0.687699 0 
vn 0.647386 -0.762162 0 
vn 0.561187 -0.827689 0 
vn 0.468408 -0.883512 0 
vn 0.370138 -0.928977 0 
vn 0.267528 -0.96355 0 
vn 0.161782 -0.986827 0 
vn 0.0541389 -0.998533 0 
vn -0.0541389 -0.998533 0 
vn -0.161782 -0.986827 0 
vn -0.267528 -0.96355 0 
vn -0.370138 -0.928977 0 
vn -0.468408 -0.883512 0 
vn -0.561187 -0.827689 0 
vn -0.647386 -0.762162 0 
vn -0.725995 -0.687699 0 
vn -0.796093 -0.605174 0 
vn -0.856857 -0.515554 0 
vn -0.907575 -0.419889 0 
vn -0.947653 -0.319302 0 
vn -0.976621 -0.21497 0 
vn -0.994138 -0.108119 0 
vn 0 0 1 
usemtl 0.615686_0.811765_0.929412_0.000000_0.000000
o mesh0
f 59//1 1//1 2//1 
f 2//1 3//1 59//1 
f 3//1 4//1 59//1 
f 4//1 5//1 59//1 
f 5//1 6//1 59//1 
f 6//1 7//1 59//1 
f 7//1 8//1 59//1 
f 8//1 9//1 59//1 
f 9//1 10//1 59//1 
f 10//1 11//1 59//1 
f 11//1 12//1 59//1 
f 12//1 13//1 59//1 
f 13//1 14//1 59//1 
f 14//1 15//1 59//1 
f 15//1 16//1 59//1 
f 16//1 17//1 59//1 
f 17//1 18//1 59//1 
f 18//1 19//1 59//1 
f 19//1 20//1 59//1 
f 20//1 21//1 59//1 
f 21//1 22//1 59//1 
f 22//1 23//1 59//1 
f 23//1 24//1 59//1 
f 24//1 25//1 59//1 
f 25//1 26//1 59//1 
f 26//1 27//1 59//1 
f 27//1 28//1 59//1 
f 28//1 29//1 59//1 
f 29//1 30//1 59//1 
f 30//1 31//1 59//1 
f 31//1 32//1 59//1 
f 32//1 33//1 59//1 
f 33//1 34//1 59//1 
f 34//1 35//1 59//1 
f 35//1 36//1 59//1 
f 36//1 37//1 59//1 
f 37//1 38//1 59//1 
f 38//1 39//1 59//1 
f 39//1 40//1 59//1 
f 40//1 41//1 59//1 
f 41//1 42//1 59//1 
f 42//1 43//1 59//1 
f 43//1 44//1 59//1 
f 44//1 45//1 59//1 
f 45//1 46//1 59//1 
f 46//1 47//1 59//1 
f 47//1 48//1 59//1 
f 48//1 49//1 59//1 
f 49//1 50//1 59//1 
f 50//1 51//1 59//1 
f 51//1 52//1 59//1 
f 52//1 53//1 59//1 
f 53//1 54//1 59//1 
f 54//1 55//1 59//1 
f 55//1 56//1 59//1 
f 56//1 57//1 59//1 
f 57//1 58//1 59//1 
f 58//1 1//1 59//1 
o mesh1
f 60//2 29//2 28//3 
f 61//3 28//3 27//4 
f 62//4 27//4 26//5 
f 63//5 26//5 25//6 
f 64//6 25//6 24//7 
f 65//7 24//7 23//8 
f 66//8 23//8 22//9 
f 67//9 22//9 21//10 
f 68//10 21//10 20//11 
f 69//11 20//11 19//12 
f 70//12 19//12 18//13 
f 71//13 18//13 17//14 
f 72//14 17//14 16//15 
f 73//15 16//15 15//16 
f 74//16 15//16 14//17 
f 75//17 14//17 13//18 
f 76//18 13//18 12//19 
f 77//19 12//19 11//20 
f 78//20 11//20 10//21 
f 79//21 10//21 9//22 
f 80//22 9//22 8//23 
f 81//23 8//23 7//24 
f 82//24 7//24 6//25 
f 83//25 6//25 5//26 
f 84//26 5//26 4//27 
f 85//27 4//27 3//28 
f 86//28 3//28 2//29 
f 87//29 2//29 1//30 
f 88//30 1//30 58//31 
f 89//31 58//31 57//32 
f 90//32 57//32 56//33 
f 91//33 56//33 55//34 
f 92//34 55//34 54//35 
f 93//35 54//35 53//36 
f 94//36 53//36 52//37 
f 95//37 52//37 51//38 
f 96//38 51//38 50//39 
f 97//39 50//39 49//40 
f 98//40 49//40 48//41 
f 99//41 48//41 47//42 
f 100//42 47//42 46//43 
f 101//43 46//43 45//44 
f 102//44 45//44 44//45 
f 103//45 44//45 43//46 
f 104//46 43//46 42//47 
f 105//47 42//47 41//48 
f 106//48 41//48 40//49 
f 107//49 40//49 39//50 
f 108//50 39//50 38//51 
f 109//51 38//51 37//52 
f 110//52 37//52 36//53 
f 111//53 36//53 35//54 
f 112//54 35//54 34//55 
f 113//55 34//55 33//56 
f 114//56 33//56 32//57 
f 115//57 32//57 31//58 
f 116//58 31//58 30//59 
f 117//59 30//59 29//2 
f 29//2 60//2 117//59 
f 30//59 117//59 116//58 
f 31//58 116//58 115//57 
f 32//57 115//57 114//56 
f 33//56 114//56 113//55 
f 34//55 113//55 112//54 
f 35//54 112//54 111//53 
f 36//53 111//53 110//52 
f 37//52 110//52 109//51 
f 38//51 109//51 108//50 
f 39//50 108//50 107//49 
f 40//49 107//49 106//48 
f 41//48 106//48 105//47 
f 42//47 105//47 104//46 
f 43//46 104//46 103//45 
f 44//45 103//45 102//44 
f 45//44 102//44 101//43 
f 46//43 101//43 100//42 
f 47//42 100//42 99//41 
f 48//41 99//41 98//40 
f 49//40 98//40 97//39 
f 50//39 97//39 96//38 
f 51//38 96//38 95//37 
f 52//37 95//37 94//36 
f 53//36 94//36 93//35 
f 54//35 93//35 92//34 
f 55//34 92//34 91//33 
f 56//33 91//33 90//32 
f 57//32 90//32 89//31 
f 58//31 89//31 88//30 
f 1//30 88//30 87//29 
f 2//29 87//29 86//28 
f 3//28 86//28 85//27 
f 4//27 85//27 84//26 
f 5//26 84//26 83//25 
f 6//25 83//25 82//24 
f 7//24 82//24 81//23 
f 8//23 81//23 80//22 
f 9//22 80//22 79//21 
f 10//21 79//21 78//20 
f 11//20 78//20 77//19 
f 12//19 77//19 76//18 
f 13//18 76//18 75//17 
f 14//17 75//17 74//16 
f 15//16 74//16 73//15 
f 16//15 73//15 72//14 
f 17//14 72//14 71//13 
f 18//13 71//13 70//12 
f 19//12 70//12 69//11 
f 20//11 69//11 68//10 
f 21//10 68//10 67//9 
f 22//9 67//9 66//8 
f 23//8 66//8 65//7 
f 24//7 65//7 64//6 
f 25//6 64//6 63//5 
f 26//5 63//5 62//4 
f 27//4 62//4 61//3 
f 28//3 61//3 60//2 
o mesh2
f 118//60 119//60 120//60 
f 121//60 82//60 83//60 
f 121//60 80//60 81//60 
f 122//60 77//60 78//60 
f 123//60 117//60 60//60 
f 120//60 124//60 118//60 
f 83//60 84//60 121//60 
f 121//60 79//60 80//60 
f 122//60 76//60 77//60 
f 122//60 65//60 66//60 
f 60//60 122//60 123//60 
f 123//60 115//60 116//60 
f 118//60 125//60 119//60 
f 118//60 126//60 127//60 
f 81//60 82//60 121//60 
f 78//60 121//60 122//60 
f 122//60 74//60 75//60 
f 122//60 70//60 71//60 
f 122//60 68//60 69//60 
f 66//60 67//60 122//60 
f 116//60 117//60 123//60 
f 123//60 113//60 114//60 
f 127//60 125//60 118//60 
f 122//60 128//60 126//60 
f 78//60 79//60 121//60 
f 122//60 73//60 74//60 
f 71//60 72//60 122//60 
f 67//60 68//60 122//60 
f 122//60 61//60 62//60 
f 114//60 115//60 123//60 
f 123//60 109//60 110//60 
f 123//60 129//60 130//60 
f 129//60 131//60 132//60 
f 126//60 118//60 122//60 
f 122//60 133//60 134//60 
f 122//60 135//60 136//60 
f 75//60 76//60 122//60 
f 69//60 70//60 122//60 
f 122//60 63//60 64//60 
f 60//60 61//60 122//60 
f 123//60 111//60 112//60 
f 123//60 108//60 109//60 
f 123//60 106//60 107//60 
f 123//60 104//60 105//60 
f 123//60 137//60 100//60 
f 129//60 138//60 130//60 
f 129//60 139//60 140//60 
f 132//60 141//60 129//60 
f 134//60 128//60 122//60 
f 122//60 142//60 135//60 
f 143//60 86//60 87//60 
f 72//60 73//60 122//60 
f 62//60 63//60 122//60 
f 110//60 111//60 123//60 
f 105//60 106//60 123//60 
f 123//60 102//60 103//60 
f 100//60 101//60 123//60 
f 137//60 98//60 99//60 
f 144//60 94//60 95//60 
f 144//60 91//60 92//60 
f 123//60 145//60 146//60 
f 123//60 147//60 148//60 
f 140//60 138//60 129//60 
f 141//60 149//60 129//60 
f 118//60 150//60 151//60 
f 118//60 152//60 153//60 
f 136//60 133//60 122//60 
f 143//60 88//60 89//60 
f 143//60 85//60 86//60 
f 64//60 65//60 122//60 
f 107//60 108//60 123//60 
f 101//60 102//60 123//60 
f 137//60 97//60 98//60 
f 95//60 96//60 144//60 
f 144//60 90//60 91//60 
f 90//60 144//60 154//60 
f 123//60 155//60 156//60 
f 148//60 145//60 123//60 
f 149//60 139//60 129//60 
f 129//60 157//60 158//60 
f 118//60 159//60 160//60 
f 151//60 161//60 118//60 
f 124//60 152//60 118//60 
f 85//60 143//60 162//60 
f 87//60 88//60 143//60 
f 112//60 113//60 123//60 
f 99//60 100//60 137//60 
f 144//60 93//60 94//60 
f 154//60 89//60 90//60 
f 156//60 163//60 123//60 
f 123//60 164//60 165//60 
f 130//60 147//60 123//60 
f 129//60 166//60 167//60 
f 129//60 168//60 169//60 
f 129//60 170//60 157//60 
f 129//60 118//60 171//60 
f 118//60 172//60 159//60 
f 153//60 150//60 118//60 
f 122//60 121//60 173//60 
f 89//60 154//60 143//60 
f 103//60 104//60 123//60 
f 92//60 93//60 144//60 
f 97//60 137//60 174//60 
f 165//60 155//60 123//60 
f 167//60 131//60 129//60 
f 129//60 175//60 168//60 
f 171//60 170//60 129//60 
f 118//60 176//60 177//60 
f 161//60 172//60 118//60 
f 173//60 178//60 122//60 
f 84//60 85//60 121//60 
f 174//60 144//60 97//60 
f 146//60 164//60 123//60 
f 158//60 175//60 129//60 
f 177//60 179//60 118//60 
f 178//60 142//60 122//60 
f 96//60 97//60 144//60 
f 169//60 166//60 129//60 
f 160//60 176//60 118//60 
f 163//60 137//60 123//60 
f 162//60 121//60 85//60 
f 179//60 171//60 118//60 
o mesh3
f 118//61 180//61 181//61 
f 181//61 122//61 118//61 
o mesh4
f 122//62 181//62 182//62 
f 182//62 123//62 122//62 
o mesh5
f 123//63 182//63 183//63 
f 183//63 129//63 123//63 
o mesh6
f 129//64 183//64 180//64 
f 180//64 118//64 129//64 
o mesh7
f 182//65 181//65 180//65 
f 180//65 183//65 182//65 
o mesh8
f 154//66 184//66 185//67 
f 143//67 185//67 186//68 
f 162//68 186//68 187//69 
f 121//69 187//69 188//70 
f 173//70 188//70 189//71 
f 178//71 189//71 190//72 
f 142//72 190//72 191//73 
f 135//73 191//73 192//74 
f 136//74 192//74 193//75 
f 133//75 193//75 194//76 
f 134//76 194//76 195//77 
f 128//77 195//77 196//78 
f 126//78 196//78 197//79 
f 127//79 197//79 198//80 
f 125//80 198//80 199//81 
f 119//81 199//81 200//82 
f 120//82 200//82 201//83 
f 124//83 201//83 202//84 
f 152//84 202//84 203//85 
f 153//85 203//85 204//86 
f 150//86 204//86 205//87 
f 151//87 205//87 206//88 
f 161//88 206//88 207//89 
f 172//89 207//89 208//90 
f 159//90 208//90 209//91 
f 160//91 209//91 210//92 
f 176//92 210//92 211//93 
f 177//93 211//93 212//94 
f 179//94 212//94 213//95 
f 171//95 213//95 214//96 
f 170//96 214//96 215//97 
f 157//97 215//97 216//98 
f 158//98 216//98 217//99 
f 175//99 217//99 218//100 
f 168//100 218//100 219//101 
f 169//101 219//101 220//102 
f 166//102 220//102 221//103 
f 167//103 221//103 222//104 
f 131//104 222//104 223//105 
f 132//105 223//105 224//106 
f 141//106 224//106 225//107 
f 149//107 225//107 226//108 
f 139//108 226//108 227//109 
f 140//109 227//109 228//110 
f 138//110 228//110 229//111 
f 130//111 229//111 230//112 
f 147//112 230//112 231//113 
f 148//113 231//113 232//114 
f 145//114 232//114 233//115 
f 146//115 233//115 234//116 
f 164//116 234//116 235//117 
f 165//117 235//117 236//118 
f 155//118 236//118 237//119 
f 156//119 237//119 238//120 
f 163//120 238//120 239//121 
f 137//121 239//121 240//122 
f 174//122 240//122 241//123 
f 144//123 241//123 184//66 
f 184//66 154//66 144//123 
f 241//123 144//123 174//122 
f 240//122 174//122 137//121 
f 239//121 137//121 163//120 
f 238//120 163//120 156//119 
f 237//119 156//119 155//118 
f 236//118 155//118 165//117 
f 235//117 165//117 164//116 
f 234//116 164//116 146//115 
f 233//115 146//115 145//114 
f 232//114 145//114 148//113 
f 231//113 148//113 147//112 
f 230//112 147//112 130//111 
f 229//111 130//111 138//110 
f 228//110 138//110 140//109 
f 227//109 140//109 139//108 
f 226//108 139//108 149//107 
f 225//107 149//107 141//106 
f 224//106 141//106 132//105 
f 223//105 132//105 131//104 
f 222//104 131//104 167//103 
f 221//103 167//103 166//102 
f 220//102 166//102 169//101 
f 219//101 169//101 168//100 
f 218//100 168//100 175//99 
f 217//99 175//99 158//98 
f 216//98 158//98 157//97 
f 215//97 157//97 170//96 
f 214//96 170//96 171//95 
f 213//95 171//95 179//94 
f 212//94 179//94 177//93 
f 211//93 177//93 176//92 
f 210//92 176//92 160//91 
f 209//91 160//91 159//90 
f 208//90 159//90 172//89 
f 207//89 172//89 161//88 
f 206//88 161//88 151//87 
f 205//87 151//87 150//86 
f 204//86 150//86 153//85 
f 203//85 153//85 152//84 
f 202//84 152//84 124//83 
f 201//83 124//83 120//82 
f 200//82 120//82 119//81 
f 199//81 119//81 125//80 
f 198//80 125//80 127//79 
f 197//79 127//79 126//78 
f 196//78 126//78 128//77 
f 195//77 128//77 134//76 
f 194//76 134//76 133//75 
f 193//75 133//75 136//74 
f 192//74 136//74 135//73 
f 191//73 135//73 142//72 
f 190//72 142//72 178//71 
f 189//71 178//71 173//70 
f 188//70 173//70 121//69 
f 187//69 121//69 162//68 
f 186//68 162//68 143//67 
f 185//67 143//67 154//66 
o mesh9
f 242//124 212//124 211//124 
f 211//124 210//124 242//124 
f 210//124 209//124 242//124 
f 209//124 208//124 242//124 
f 208//124 207//124 242//124 
f 207//124 206//124 242//124 
f 206//124 205//124 242//124 
f 205//124 204//124 242//124 
f 204//124 203//124 242//124 
f 203//124 202//124 242//124 
f 202//124 201//124 242//124 
f 201//124 200//124 242//124 
f 200//124 199//124 242//124 
f 199//124 198//124 242//124 
f 198//124 197//124 242//124 
f 197//124 196//124 242//124 
f 196//124 195//124 242//124 
f 195//124 194//124 242//124 
f 194//124 193//124 242//124 
f 193//124 192//124 242//124 
f 192//124 191//124 242//124 
f 191//124 190//124 242//124 
f 190//124 189//124 242//124 
f 189//124 188//124 242//124 
f 188//124 187//124 242//124 
f 187//124 186//124 242//124 
f 186//124 185//124 242//124 
f 185//124 184//124 242//124 
f 184//124 241//124 242//124 
f 241//124 240//124 242//124 
f 240//124 239//124 242//124 
f 239//124 238//124 242//124 
f 238//124 237//124 242//124 
f 237//124 236//124 242//124 
f 236//124 235//124 242//124 
f 235//124 234//124 242//124 
f 234//124 233//124 242//124 
f 233//124 232//124 242//124 
f 232//124 231//124 242//124 
f 231//124 230//124 242//124 
f 230//124 229//124 242//124 
f 229//124 228//124 242//124 
f 228//124 227//124 242//124 
f 227//124 226//124 242//124 
f 226//124 225//124 242//124 
f 225//124 224//124 242//124 
f 224//124 223//124 242//124 
f 223//124 222//124 242//124 
f 222//124 221//124 242//124 
f 221//124 220//124 242//124 
f 220//124 219//124 242//124 
f 219//124 218//124 242//124 
f 218//124 217//124 242//124 
f 217//124 216//124 242//124 
f 216//124 215//124 242//124 
f 215//124 214//124 242//124 
f 214//124 213//124 242//124 
f 213//124 212//124 242//124 
