# OBJ generated by ONSHAPE BY PTC INC, 1.197 Units = meters
mtllib nut_wide.mtl
g Part 3
v -0.0951002 0.0381863 0 
v -0.0951837 0.0397266 0 
v -0.0951837 0.0397266 0.03 
v -0.0948506 0.0366641 0 
v -0.0951002 0.0381863 0.03 
v -0.0944379 0.0351777 0 
v -0.0948506 0.0366641 0.03 
v -0.093867 0.0337447 0 
v -0.0944379 0.0351777 0.03 
v -0.0931444 0.0323818 0 
v -0.093867 0.0337447 0.03 
v -0.0922787 0.0311051 0 
v -0.0931444 0.0323818 0.03 
v -0.0912801 0.0299294 0 
v -0.0922787 0.0311051 0.03 
v -0.0901602 0.0288685 0 
v -0.0912801 0.0299294 0.03 
v -0.0889322 0.027935 0 
v -0.0901602 0.0288685 0.03 
v -0.0876104 0.0271397 0 
v -0.0889322 0.027935 0.03 
v -0.0862104 0.026492 0 
v -0.0876104 0.0271397 0.03 
v -0.0847486 0.0259995 0 
v -0.0862104 0.026492 0.03 
v -0.0832421 0.0256679 0 
v -0.0847486 0.0259995 0.03 
v -0.0817085 0.0255011 0 
v -0.0832421 0.0256679 0.03 
v -0.080166 0.0255011 0 
v -0.0817085 0.0255011 0.03 
v -0.0786324 0.0256679 0 
v -0.080166 0.0255011 0.03 
v -0.0771259 0.0259995 0 
v -0.0786324 0.0256679 0.03 
v -0.0756641 0.026492 0 
v -0.0771259 0.0259995 0.03 
v -0.0742641 0.0271397 0 
v -0.0756641 0.026492 0.03 
v -0.0729423 0.027935 0 
v -0.0742641 0.0271397 0.03 
v -0.0717143 0.0288685 0 
v -0.0729423 0.027935 0.03 
v -0.0705944 0.0299294 0 
v -0.0717143 0.0288685 0.03 
v -0.0695958 0.0311051 0 
v -0.0705944 0.0299294 0.03 
v -0.0687301 0.0323818 0 
v -0.0695958 0.0311051 0.03 
v -0.0680075 0.0337447 0 
v -0.0687301 0.0323818 0.03 
v -0.0674366 0.0351777 0 
v -0.0680075 0.0337447 0.03 
v -0.0670239 0.0366641 0 
v -0.0674366 0.0351777 0.03 
v -0.0667743 0.0381863 0 
v -0.0670239 0.0366641 0.03 
v -0.0666908 0.0397266 0 
v -0.0667743 0.0381863 0.03 
v -0.0667743 0.0412669 0 
v -0.0666908 0.0397266 0.03 
v -0.0670239 0.0427892 0 
v -0.0667743 0.0412669 0.03 
v -0.0674366 0.0442755 0 
v -0.0670239 0.0427892 0.03 
v -0.0680075 0.0457086 0 
v -0.0674366 0.0442755 0.03 
v -0.0687301 0.0470714 0 
v -0.0680075 0.0457086 0.03 
v -0.0695958 0.0483482 0 
v -0.0687301 0.0470714 0.03 
v -0.0705944 0.0495239 0 
v -0.0695958 0.0483482 0.03 
v -0.0717143 0.0505847 0 
v -0.0705944 0.0495239 0.03 
v -0.0729423 0.0515183 0 
v -0.0717143 0.0505847 0.03 
v -0.0742641 0.0523135 0 
v -0.0729423 0.0515183 0.03 
v -0.0756641 0.0529612 0 
v -0.0742641 0.0523135 0.03 
v -0.0771259 0.0534538 0 
v -0.0756641 0.0529612 0.03 
v -0.0786324 0.0537854 0 
v -0.0771259 0.0534538 0.03 
v -0.080166 0.0539522 0 
v -0.0786324 0.0537854 0.03 
v -0.0817085 0.0539522 0 
v -0.080166 0.0539522 0.03 
v -0.0832421 0.0537854 0 
v -0.0817085 0.0539522 0.03 
v -0.0847486 0.0534538 0 
v -0.0832421 0.0537854 0.03 
v -0.0862104 0.0529612 0 
v -0.0847486 0.0534538 0.03 
v -0.0876104 0.0523135 0 
v -0.0862104 0.0529612 0.03 
v -0.0889322 0.0515183 0 
v -0.0876104 0.0523135 0.03 
v -0.0901602 0.0505847 0 
v -0.0889322 0.0515183 0.03 
v -0.0912801 0.0495239 0 
v -0.0901602 0.0505847 0.03 
v -0.0922787 0.0483482 0 
v -0.0912801 0.0495239 0.03 
v -0.0931444 0.0470714 0 
v -0.0922787 0.0483482 0.03 
v -0.093867 0.0457086 0 
v -0.0931444 0.0470714 0.03 
v -0.0944379 0.0442755 0 
v -0.093867 0.0457086 0.03 
v -0.0948506 0.0427892 0 
v -0.0944379 0.0442755 0.03 
v -0.0951002 0.0412669 0 
v -0.0948506 0.0427892 0.03 
v -0.0951002 0.0412669 0.03 
v -0.0920133 0.0193287 0.03 
v -0.0688102 0.0199355 0.03 
v -0.10414 0.0391198 0.03 
v -0.0698612 0.0601246 0.03 
v -0.0930643 0.0595178 0.03 
v -0.0577341 0.0403334 0.03 
v -0.0930643 0.0595178 0 
v -0.0577341 0.0403334 0 
v -0.0688102 0.0199355 0 
v -0.0920133 0.0193287 0 
v -0.0698612 0.0601246 0 
v -0.10414 0.0391198 0 
vn 0.994138 0.108119 0 
vn 1 2.44929e-16 0 
vn 0.976621 0.21497 0 
vn 0.994138 0.108119 0 
vn 0.947653 0.319302 0 
vn 0.976621 0.21497 0 
vn 0.907575 0.419889 0 
vn 0.947653 0.319302 0 
vn 0.856857 0.515554 0 
vn 0.907575 0.419889 0 
vn 0.796093 0.605174 0 
vn 0.856857 0.515554 0 
vn 0.725995 0.687699 0 
vn 0.796093 0.605174 0 
vn 0.647386 0.762162 0 
vn 0.725995 0.687699 0 
vn 0.561187 0.827689 0 
vn 0.647386 0.762162 0 
vn 0.468408 0.883512 0 
vn 0.561187 0.827689 0 
vn 0.370138 0.928977 0 
vn 0.468408 0.883512 0 
vn 0.267528 0.96355 0 
vn 0.370138 0.928977 0 
vn 0.161782 0.986827 0 
vn 0.267528 0.96355 0 
vn 0.0541389 0.998533 0 
vn 0.161782 0.986827 0 
vn -0.0541389 0.998533 0 
vn 0.0541389 0.998533 0 
vn -0.161782 0.986827 0 
vn -0.0541389 0.998533 0 
vn -0.267528 0.96355 0 
vn -0.161782 0.986827 0 
vn -0.370138 0.928977 0 
vn -0.267528 0.96355 0 
vn -0.468408 0.883512 0 
vn -0.370138 0.928977 0 
vn -0.561187 0.827689 0 
vn -0.468408 0.883512 0 
vn -0.647386 0.762162 0 
vn -0.561187 0.827689 0 
vn -0.725995 0.687699 0 
vn -0.647386 0.762162 0 
vn -0.796093 0.605174 0 
vn -0.725995 0.687699 0 
vn -0.856857 0.515554 0 
vn -0.796093 0.605174 0 
vn -0.907575 0.419889 0 
vn -0.856857 0.515554 0 
vn -0.947653 0.319302 0 
vn -0.907575 0.419889 0 
vn -0.976621 0.21497 0 
vn -0.947653 0.319302 0 
vn -0.994138 0.108119 0 
vn -0.976621 0.21497 0 
vn -1 -1.22465e-16 0 
vn -0.994138 0.108119 0 
vn -0.994138 -0.108119 0 
vn -1 -1.22465e-16 0 
vn -0.976621 -0.21497 0 
vn -0.994138 -0.108119 0 
vn -0.947653 -0.319302 0 
vn -0.976621 -0.21497 0 
vn -0.907575 -0.419889 0 
vn -0.947653 -0.319302 0 
vn -0.856857 -0.515554 0 
vn -0.907575 -0.419889 0 
vn -0.796093 -0.605174 0 
vn -0.856857 -0.515554 0 
vn -0.725995 -0.687699 0 
vn -0.796093 -0.605174 0 
vn -0.647386 -0.762162 0 
vn -0.725995 -0.687699 0 
vn -0.561187 -0.827689 0 
vn -0.647386 -0.762162 0 
vn -0.468408 -0.883512 0 
vn -0.561187 -0.827689 0 
vn -0.370138 -0.928977 0 
vn -0.468408 -0.883512 0 
vn -0.267528 -0.96355 0 
vn -0.370138 -0.928977 0 
vn -0.161782 -0.986827 0 
vn -0.267528 -0.96355 0 
vn -0.0541389 -0.998533 0 
vn -0.161782 -0.986827 0 
vn 0.0541389 -0.998533 0 
vn -0.0541389 -0.998533 0 
vn 0.161782 -0.986827 0 
vn 0.0541389 -0.998533 0 
vn 0.267528 -0.96355 0 
vn 0.161782 -0.986827 0 
vn 0.370138 -0.928977 0 
vn 0.267528 -0.96355 0 
vn 0.468408 -0.883512 0 
vn 0.370138 -0.928977 0 
vn 0.561187 -0.827689 0 
vn 0.468408 -0.883512 0 
vn 0.647386 -0.762162 0 
vn 0.561187 -0.827689 0 
vn 0.725995 -0.687699 0 
vn 0.647386 -0.762162 0 
vn 0.796093 -0.605174 0 
vn 0.725995 -0.687699 0 
vn 0.856857 -0.515554 0 
vn 0.796093 -0.605174 0 
vn 0.907575 -0.419889 0 
vn 0.856857 -0.515554 0 
vn 0.947653 -0.319302 0 
vn 0.907575 -0.419889 0 
vn 0.976621 -0.21497 0 
vn 0.947653 -0.319302 0 
vn 0.994138 -0.108119 0 
vn 0.976621 -0.21497 0 
vn 0 0 1 
vn 0 0 -1 
vn 0.878801 -0.477189 0 
vn 0.852658 0.52247 0 
vn -0.0261429 0.999658 0 
vn -0.878801 0.477189 0 
vn -0.852658 -0.52247 0 
vn 0.0261429 -0.999658 0 
usemtl 0.231373_0.380392_0.705882_0.000000_0.000000
o mesh0
f 1//1 2//2 3//2 
f 4//3 1//1 5//4 
f 6//5 4//3 7//6 
f 8//7 6//5 9//8 
f 10//9 8//7 11//10 
f 12//11 10//9 13//12 
f 14//13 12//11 15//14 
f 16//15 14//13 17//16 
f 18//17 16//15 19//18 
f 20//19 18//17 21//20 
f 22//21 20//19 23//22 
f 24//23 22//21 25//24 
f 26//25 24//23 27//26 
f 28//27 26//25 29//28 
f 30//29 28//27 31//30 
f 32//31 30//29 33//32 
f 34//33 32//31 35//34 
f 36//35 34//33 37//36 
f 38//37 36//35 39//38 
f 40//39 38//37 41//40 
f 42//41 40//39 43//42 
f 44//43 42//41 45//44 
f 46//45 44//43 47//46 
f 48//47 46//45 49//48 
f 50//49 48//47 51//50 
f 52//51 50//49 53//52 
f 54//53 52//51 55//54 
f 56//55 54//53 57//56 
f 58//57 56//55 59//58 
f 60//59 58//57 61//60 
f 62//61 60//59 63//62 
f 64//63 62//61 65//64 
f 66//65 64//63 67//66 
f 68//67 66//65 69//68 
f 70//69 68//67 71//70 
f 72//71 70//69 73//72 
f 74//73 72//71 75//74 
f 76//75 74//73 77//76 
f 78//77 76//75 79//78 
f 80//79 78//77 81//80 
f 82//81 80//79 83//82 
f 84//83 82//81 85//84 
f 86//85 84//83 87//86 
f 88//87 86//85 89//88 
f 90//89 88//87 91//90 
f 92//91 90//89 93//92 
f 94//93 92//91 95//94 
f 96//95 94//93 97//96 
f 98//97 96//95 99//98 
f 100//99 98//97 101//100 
f 102//101 100//99 103//102 
f 104//103 102//101 105//104 
f 106//105 104//103 107//106 
f 108//107 106//105 109//108 
f 110//109 108//107 111//110 
f 112//111 110//109 113//112 
f 114//113 112//111 115//114 
f 2//2 114//113 116//113 
f 116//113 3//2 2//2 
f 115//114 116//113 114//113 
f 113//112 115//114 112//111 
f 111//110 113//112 110//109 
f 109//108 111//110 108//107 
f 107//106 109//108 106//105 
f 105//104 107//106 104//103 
f 103//102 105//104 102//101 
f 101//100 103//102 100//99 
f 99//98 101//100 98//97 
f 97//96 99//98 96//95 
f 95//94 97//96 94//93 
f 93//92 95//94 92//91 
f 91//90 93//92 90//89 
f 89//88 91//90 88//87 
f 87//86 89//88 86//85 
f 85//84 87//86 84//83 
f 83//82 85//84 82//81 
f 81//80 83//82 80//79 
f 79//78 81//80 78//77 
f 77//76 79//78 76//75 
f 75//74 77//76 74//73 
f 73//72 75//74 72//71 
f 71//70 73//72 70//69 
f 69//68 71//70 68//67 
f 67//66 69//68 66//65 
f 65//64 67//66 64//63 
f 63//62 65//64 62//61 
f 61//60 63//62 60//59 
f 59//58 61//60 58//57 
f 57//56 59//58 56//55 
f 55//54 57//56 54//53 
f 53//52 55//54 52//51 
f 51//50 53//52 50//49 
f 49//48 51//50 48//47 
f 47//46 49//48 46//45 
f 45//44 47//46 44//43 
f 43//42 45//44 42//41 
f 41//40 43//42 40//39 
f 39//38 41//40 38//37 
f 37//36 39//38 36//35 
f 35//34 37//36 34//33 
f 33//32 35//34 32//31 
f 31//30 33//32 30//29 
f 29//28 31//30 28//27 
f 27//26 29//28 26//25 
f 25//24 27//26 24//23 
f 23//22 25//24 22//21 
f 21//20 23//22 20//19 
f 19//18 21//20 18//17 
f 17//16 19//18 16//15 
f 15//14 17//16 14//13 
f 13//12 15//14 12//11 
f 11//10 13//12 10//9 
f 9//8 11//10 8//7 
f 7//6 9//8 6//5 
f 5//4 7//6 4//3 
f 3//2 5//4 1//1 
o mesh1
f 117//115 118//115 33//115 
f 118//115 39//115 37//115 
f 118//115 45//115 43//115 
f 119//115 115//115 113//115 
f 119//115 3//115 116//115 
f 117//115 27//115 25//115 
f 117//115 31//115 29//115 
f 118//115 35//115 33//115 
f 118//115 41//115 39//115 
f 118//115 47//115 45//115 
f 118//115 51//115 49//115 
f 120//115 77//115 75//115 
f 121//115 95//115 93//115 
f 121//115 107//115 105//115 
f 116//115 115//115 119//115 
f 119//115 7//115 5//115 
f 29//115 27//115 117//115 
f 37//115 35//115 118//115 
f 49//115 47//115 118//115 
f 122//115 53//115 51//115 
f 120//115 79//115 77//115 
f 120//115 83//115 81//115 
f 120//115 89//115 87//115 
f 120//115 121//115 91//115 
f 121//115 97//115 95//115 
f 121//115 101//115 99//115 
f 105//115 103//115 121//115 
f 5//115 3//115 119//115 
f 119//115 11//115 9//115 
f 117//115 15//115 13//115 
f 33//115 31//115 117//115 
f 51//115 118//115 122//115 
f 81//115 79//115 120//115 
f 87//115 85//115 120//115 
f 93//115 91//115 121//115 
f 103//115 101//115 121//115 
f 9//115 7//115 119//115 
f 13//115 119//115 117//115 
f 117//115 23//115 21//115 
f 43//115 41//115 118//115 
f 122//115 57//115 55//115 
f 122//115 61//115 59//115 
f 120//115 73//115 71//115 
f 85//115 83//115 120//115 
f 99//115 97//115 121//115 
f 13//115 11//115 119//115 
f 117//115 19//115 17//115 
f 25//115 23//115 117//115 
f 59//115 57//115 122//115 
f 122//115 65//115 63//115 
f 122//115 69//115 67//115 
f 71//115 122//115 120//115 
f 91//115 89//115 120//115 
f 119//115 111//115 109//115 
f 17//115 15//115 117//115 
f 55//115 53//115 122//115 
f 67//115 65//115 122//115 
f 75//115 73//115 120//115 
f 109//115 121//115 119//115 
f 21//115 19//115 117//115 
f 71//115 69//115 122//115 
f 113//115 111//115 119//115 
f 109//115 107//115 121//115 
f 63//115 61//115 122//115 
o mesh2
f 123//116 100//116 102//116 
f 124//116 125//116 48//116 
f 125//116 44//116 46//116 
f 125//116 38//116 40//116 
f 125//116 32//116 34//116 
f 126//116 28//116 30//116 
f 123//116 98//116 100//116 
f 123//116 94//116 96//116 
f 123//116 88//116 90//116 
f 127//116 72//116 74//116 
f 46//116 48//116 125//116 
f 40//116 42//116 125//116 
f 34//116 36//116 125//116 
f 30//116 125//116 126//116 
f 96//116 98//116 123//116 
f 90//116 92//116 123//116 
f 127//116 82//116 84//116 
f 127//116 76//116 78//116 
f 127//116 70//116 72//116 
f 124//116 58//116 60//116 
f 124//116 54//116 56//116 
f 42//116 44//116 125//116 
f 30//116 32//116 125//116 
f 126//116 24//116 26//116 
f 126//116 20//116 22//116 
f 92//116 94//116 123//116 
f 127//116 86//116 88//116 
f 127//116 80//116 82//116 
f 74//116 76//116 127//116 
f 124//116 62//116 64//116 
f 56//116 58//116 124//116 
f 36//116 38//116 125//116 
f 22//116 24//116 126//116 
f 88//116 123//116 127//116 
f 78//116 80//116 127//116 
f 127//116 124//116 68//116 
f 60//116 62//116 124//116 
f 124//116 50//116 52//116 
f 26//116 28//116 126//116 
f 126//116 16//116 18//116 
f 126//116 128//116 10//116 
f 128//116 4//116 6//116 
f 128//116 2//116 1//116 
f 84//116 86//116 127//116 
f 124//116 66//116 68//116 
f 52//116 54//116 124//116 
f 18//116 20//116 126//116 
f 128//116 8//116 10//116 
f 1//116 4//116 128//116 
f 128//116 112//116 114//116 
f 128//116 108//116 110//116 
f 128//116 123//116 106//116 
f 68//116 70//116 127//116 
f 48//116 50//116 124//116 
f 126//116 12//116 14//116 
f 6//116 8//116 128//116 
f 110//116 112//116 128//116 
f 123//116 104//116 106//116 
f 64//116 66//116 124//116 
f 10//116 12//116 126//116 
f 106//116 108//116 128//116 
f 14//116 16//116 126//116 
f 102//116 104//116 123//116 
f 114//116 2//116 128//116 
o mesh3
f 118//117 125//117 124//117 
f 124//117 122//117 118//117 
o mesh4
f 122//118 124//118 127//118 
f 127//118 120//118 122//118 
o mesh5
f 120//119 127//119 123//119 
f 123//119 121//119 120//119 
o mesh6
f 121//120 123//120 128//120 
f 128//120 119//120 121//120 
o mesh7
f 119//121 128//121 126//121 
f 126//121 117//121 119//121 
o mesh8
f 117//122 126//122 125//122 
f 125//122 118//122 117//122 
