# OBJ generated by ONSHAPE BY PTC INC, 1.197 Units = meters
mtllib poly_wide.mtl
g poly_wide
v -0.0114218 -0.0203525 0.03 
v -0.0114218 -0.0203525 0 
v 0.011895 -0.0200094 0 
v 0.011895 -0.0200094 0.03 
v 0.0232562 0.000355097 0 
v 0.0232562 0.000355097 0.03 
v 0.0113007 0.0203765 0 
v 0.0113007 0.0203765 0.03 
v -0.0120161 0.0200334 0 
v -0.0120161 0.0200334 0.03 
v -0.0233774 -0.000331145 0 
v -0.0233774 -0.000331145 0.03 
v -0.00981512 0.0166963 0.03 
v -0.000166091 0.0193383 0.03 
v -0.0168504 0.00958376 0.03 
v -0.0193869 -9.35419e-05 0.03 
v 0.00951122 0.0168018 0.03 
v 0.0166238 0.00976653 0.03 
v -0.00963236 -0.0167779 0.03 
v -0.0167449 -0.00974258 0.03 
v 4.49444e-05 -0.0193144 0.03 
v 0.00969398 -0.0166724 0.03 
v 0.0167293 -0.00955981 0.03 
v 0.0192658 0.000117494 0.03 
v -0.0167988 -7.94112e-05 0.0275 
v -0.014602 0.00830193 0.0275 
v -0.0145106 -0.00843626 0.0275 
v -0.00850881 0.014462 0.0275 
v -0.0167988 -7.94112e-05 0.0025 
v -0.014602 0.00830193 0.0025 
v -0.00835052 -0.0145294 0.0275 
v -0.0145106 -0.00843626 0.0025 
v -0.000151961 0.0167502 0.0275 
v -0.00850881 0.014462 0.0025 
v -0.0168504 0.00958376 0 
v -0.0193869 -9.35419e-05 0 
v 3.08137e-05 -0.0167262 0.0275 
v -0.00835052 -0.0145294 0.0025 
v -0.0167449 -0.00974258 0 
v 0.00822938 0.0145534 0.0275 
v -0.000151961 0.0167502 0.0025 
v -0.00981512 0.0166963 0 
v 0.00838766 -0.014438 0.0275 
v 3.08137e-05 -0.0167262 0.0025 
v -0.00963236 -0.0167779 0 
v 0.0143894 0.00846021 0.0275 
v 0.00822938 0.0145534 0.0025 
v -0.000166091 0.0193383 0 
v 0.0144808 -0.00827797 0.0275 
v 0.00838766 -0.014438 0.0025 
v 4.49444e-05 -0.0193144 0 
v 0.0166776 0.000103363 0.0275 
v 0.0143894 0.00846021 0.0025 
v 0.00951122 0.0168018 0 
v 0.0166776 0.000103363 0.0025 
v 0.0166238 0.00976653 0 
v 0.0144808 -0.00827797 0.0025 
v 0.0192658 0.000117494 0 
v 0.0167293 -0.00955981 0 
v 0.00969398 -0.0166724 0 
vn 0.014714 -0.999892 0 
vn 0.873289 -0.487203 0 
vn 0.858575 0.512689 0 
vn -0.014714 0.999892 0 
vn -0.873289 0.487203 0 
vn -0.858575 -0.512689 0 
vn 0 0 1 
vn 0.684002 -0.179281 0.707107 
vn 0.682003 0.186739 0.707107 
vn 0.502722 -0.497263 0.707107 
vn 0.967325 -0.253542 0 
vn 0.497263 0.502722 0.707107 
vn 0.964498 0.264089 0 
vn 0.186739 -0.682003 0.707107 
vn 0.710957 -0.703236 0 
vn 0.684002 -0.179281 -0.707107 
vn 0.179281 0.684002 0.707107 
vn 0.703236 0.710957 0 
vn 0.682003 0.186739 -0.707107 
vn -0.179281 -0.684002 0.707107 
vn 0.264089 -0.964498 0 
vn 0.502722 -0.497263 -0.707107 
vn -0.186739 0.682003 0.707107 
vn 0.253542 0.967325 0 
vn 0.497263 0.502722 -0.707107 
vn -0.497263 -0.502722 0.707107 
vn -0.253542 -0.967325 0 
vn 0.186739 -0.682003 -0.707107 
vn -0.502722 0.497263 0.707107 
vn -0.264089 0.964498 0 
vn 0.179281 0.684002 -0.707107 
vn -0.682003 -0.186739 0.707107 
vn -0.703236 -0.710957 0 
vn -0.179281 -0.684002 -0.707107 
vn -0.684002 0.179281 0.707107 
vn -0.964498 -0.264089 0 
vn -0.497263 -0.502722 -0.707107 
vn -0.967325 0.253542 0 
vn -0.682003 -0.186739 -0.707107 
vn 0 0 -1 
vn -0.710957 0.703236 0 
vn -0.186739 0.682003 -0.707107 
vn -0.502722 0.497263 -0.707107 
vn -0.684002 0.179281 -0.707107 
usemtl 0.768627_0.886275_0.952941_0.000000_0.000000
o mesh0
f 1//1 2//1 3//1 
f 3//1 4//1 1//1 
o mesh1
f 4//2 3//2 5//2 
f 5//2 6//2 4//2 
o mesh2
f 6//3 5//3 7//3 
f 7//3 8//3 6//3 
o mesh3
f 8//4 7//4 9//4 
f 9//4 10//4 8//4 
o mesh4
f 10//5 9//5 11//5 
f 11//5 12//5 10//5 
o mesh5
f 12//6 11//6 2//6 
f 2//6 1//6 12//6 
o mesh6
f 10//7 13//7 14//7 
f 10//7 15//7 13//7 
f 12//7 16//7 15//7 
f 8//7 17//7 18//7 
f 15//7 10//7 12//7 
f 1//7 19//7 20//7 
f 8//7 14//7 17//7 
f 12//7 20//7 16//7 
f 1//7 21//7 19//7 
f 4//7 22//7 21//7 
f 18//7 6//7 8//7 
f 20//7 12//7 1//7 
f 4//7 23//7 22//7 
f 6//7 24//7 23//7 
f 14//7 8//7 10//7 
f 23//7 4//7 6//7 
f 21//7 1//7 4//7 
f 18//7 24//7 6//7 
o mesh7
f 15//8 16//8 25//8 
f 25//8 26//8 15//8 
o mesh8
f 20//9 27//9 25//9 
f 25//9 16//9 20//9 
o mesh9
f 13//10 15//10 26//10 
f 26//10 28//10 13//10 
o mesh10
f 26//11 25//11 29//11 
f 29//11 30//11 26//11 
o mesh11
f 19//12 31//12 27//12 
f 27//12 20//12 19//12 
o mesh12
f 25//13 27//13 32//13 
f 32//13 29//13 25//13 
o mesh13
f 14//14 13//14 28//14 
f 28//14 33//14 14//14 
o mesh14
f 28//15 26//15 30//15 
f 30//15 34//15 28//15 
o mesh15
f 35//16 30//16 29//16 
f 29//16 36//16 35//16 
o mesh16
f 19//17 21//17 37//17 
f 37//17 31//17 19//17 
o mesh17
f 27//18 31//18 38//18 
f 38//18 32//18 27//18 
o mesh18
f 39//19 36//19 29//19 
f 29//19 32//19 39//19 
o mesh19
f 17//20 14//20 33//20 
f 33//20 40//20 17//20 
o mesh20
f 33//21 28//21 34//21 
f 34//21 41//21 33//21 
o mesh21
f 42//22 34//22 30//22 
f 30//22 35//22 42//22 
o mesh22
f 21//23 22//23 43//23 
f 43//23 37//23 21//23 
o mesh23
f 31//24 37//24 44//24 
f 44//24 38//24 31//24 
o mesh24
f 39//25 32//25 38//25 
f 38//25 45//25 39//25 
o mesh25
f 17//26 40//26 46//26 
f 46//26 18//26 17//26 
o mesh26
f 40//27 33//27 41//27 
f 41//27 47//27 40//27 
o mesh27
f 48//28 41//28 34//28 
f 34//28 42//28 48//28 
o mesh28
f 22//29 23//29 49//29 
f 49//29 43//29 22//29 
o mesh29
f 37//30 43//30 50//30 
f 50//30 44//30 37//30 
o mesh30
f 45//31 38//31 44//31 
f 44//31 51//31 45//31 
o mesh31
f 24//32 18//32 46//32 
f 46//32 52//32 24//32 
o mesh32
f 46//33 40//33 47//33 
f 47//33 53//33 46//33 
o mesh33
f 54//34 47//34 41//34 
f 41//34 48//34 54//34 
o mesh34
f 23//35 24//35 52//35 
f 52//35 49//35 23//35 
o mesh35
f 52//36 46//36 53//36 
f 53//36 55//36 52//36 
o mesh36
f 54//37 56//37 53//37 
f 53//37 47//37 54//37 
o mesh37
f 49//38 52//38 55//38 
f 55//38 57//38 49//38 
o mesh38
f 58//39 55//39 53//39 
f 53//39 56//39 58//39 
o mesh39
f 9//40 7//40 48//40 
f 7//40 5//40 56//40 
f 5//40 3//40 59//40 
f 2//40 11//40 39//40 
f 11//40 9//40 35//40 
f 48//40 42//40 9//40 
f 56//40 54//40 7//40 
f 59//40 58//40 5//40 
f 3//40 2//40 51//40 
f 39//40 45//40 2//40 
f 42//40 35//40 9//40 
f 58//40 56//40 5//40 
f 51//40 60//40 3//40 
f 11//40 36//40 39//40 
f 54//40 48//40 7//40 
f 45//40 51//40 2//40 
f 60//40 59//40 3//40 
f 35//40 36//40 11//40 
o mesh40
f 43//41 49//41 57//41 
f 57//41 50//41 43//41 
o mesh41
f 51//42 44//42 50//42 
f 50//42 60//42 51//42 
o mesh42
f 60//43 50//43 57//43 
f 57//43 59//43 60//43 
o mesh43
f 59//44 57//44 55//44 
f 55//44 58//44 59//44 
